<svg width="1280" height="640" viewBox="0 0 1280 640" fill="none" xmlns="http://www.w3.org/2000/svg">
  <defs>
    <linearGradient id="bg" x1="160" y1="40" x2="1120" y2="600" gradientUnits="userSpaceOnUse">
      <stop stop-color="#06133B"/>
      <stop offset="0.55" stop-color="#0C1A4F"/>
      <stop offset="1" stop-color="#071028"/>
    </linearGradient>
    <radialGradient id="glowA" cx="0" cy="0" r="1" gradientUnits="userSpaceOnUse" gradientTransform="translate(980 120) rotate(90) scale(240 320)">
      <stop stop-color="#18DB73" stop-opacity="0.28"/>
      <stop offset="1" stop-color="#18DB73" stop-opacity="0"/>
    </radialGradient>
    <radialGradient id="glowB" cx="0" cy="0" r="1" gradientUnits="userSpaceOnUse" gradientTransform="translate(1060 420) rotate(90) scale(220 320)">
      <stop stop-color="#7FB7FF" stop-opacity="0.24"/>
      <stop offset="1" stop-color="#7FB7FF" stop-opacity="0"/>
    </radialGradient>
    <linearGradient id="line" x1="760" y1="120" x2="1110" y2="470" gradientUnits="userSpaceOnUse">
      <stop stop-color="#94D7FF" stop-opacity="0.35"/>
      <stop offset="1" stop-color="#13DA73" stop-opacity="0.26"/>
    </linearGradient>
  </defs>

  <rect width="1280" height="640" rx="32" fill="url(#bg)"/>
  <rect width="1280" height="640" rx="32" fill="url(#glowA)"/>
  <rect width="1280" height="640" rx="32" fill="url(#glowB)"/>

  <circle cx="920" cy="314" r="184" stroke="rgba(125, 180, 255, 0.10)" stroke-width="1.5"/>
  <circle cx="920" cy="314" r="128" stroke="rgba(125, 180, 255, 0.12)" stroke-width="1.5"/>
  <circle cx="920" cy="314" r="72" stroke="rgba(125, 180, 255, 0.14)" stroke-width="1.5"/>

  <g stroke="url(#line)" stroke-width="1.5">
    <line x1="820" y1="240" x2="920" y2="314"/>
    <line x1="920" y1="314" x2="1045" y2="240"/>
    <line x1="920" y1="314" x2="1082" y2="338"/>
    <line x1="920" y1="314" x2="1008" y2="422"/>
    <line x1="920" y1="314" x2="798" y2="412"/>
    <line x1="920" y1="314" x2="752" y2="320"/>
    <line x1="820" y1="240" x2="798" y2="412"/>
    <line x1="1045" y1="240" x2="1008" y2="422"/>
  </g>

  <g>
    <circle cx="920" cy="314" r="18" fill="#16DA73"/>
    <circle cx="820" cy="240" r="13" fill="#8FD4FF"/>
    <circle cx="1045" cy="240" r="13" fill="#8FD4FF"/>
    <circle cx="1082" cy="338" r="11" fill="#F4C84D"/>
    <circle cx="1008" cy="422" r="12" fill="#8FD4FF"/>
    <circle cx="798" cy="412" r="12" fill="#16DA73"/>
    <circle cx="752" cy="320" r="10" fill="#8FD4FF"/>
  </g>

  <text x="96" y="182" fill="#9AD2FF" font-family="SF Pro Display, PingFang SC, sans-serif" font-size="24" letter-spacing="4">INTERDISCIPLINARY RESEARCH COLLABORATION PLATFORM</text>
  <text x="96" y="274" fill="#F2F6FF" font-family="SF Pro Display, PingFang SC, sans-serif" font-size="76" font-weight="700">SynapseLab</text>
  <text x="96" y="330" fill="#18DB73" font-family="SF Pro Display, PingFang SC, sans-serif" font-size="34" font-weight="600">连接孤岛，催化创新</text>
  <text x="96" y="390" fill="#DDE7FF" font-family="PingFang SC, SF Pro Display, sans-serif" font-size="24">构建一个以“问题”为原子、跨学科协作为化学键的动态知识网络。</text>
  <text x="96" y="432" fill="#DDE7FF" font-family="PingFang SC, SF Pro Display, sans-serif" font-size="24">让每一个伟大的猜想，都能找到自己的验证路径。</text>

  <rect x="96" y="490" width="246" height="52" rx="26" fill="#18DB73"/>
  <text x="219" y="523" text-anchor="middle" fill="#05223D" font-family="PingFang SC, SF Pro Display, sans-serif" font-size="20" font-weight="700">React + CloudBase</text>

  <rect x="358" y="490" width="168" height="52" rx="26" fill="rgba(255,255,255,0.08)" stroke="rgba(255,255,255,0.12)"/>
  <text x="442" y="523" text-anchor="middle" fill="#EAF1FF" font-family="PingFang SC, SF Pro Display, sans-serif" font-size="22" font-weight="600">Scholar Graph</text>

  <rect x="542" y="490" width="150" height="52" rx="26" fill="rgba(255,255,255,0.08)" stroke="rgba(255,255,255,0.12)"/>
  <text x="617" y="523" text-anchor="middle" fill="#EAF1FF" font-family="PingFang SC, SF Pro Display, sans-serif" font-size="22" font-weight="600">Ideation Lab</text>
</svg>
